<svg width="221" height="39" viewBox="0 0 221 39" fill="none" xmlns="http://www.w3.org/2000/svg">
<path d="M17.457 22.8125C17.457 22.1484 17.3529 21.5625 17.1445 21.0547C16.9492 20.5339 16.5977 20.0651 16.0898 19.6484C15.5951 19.2318 14.9049 18.8346 14.0195 18.457C13.1471 18.0794 12.0404 17.6953 10.6992 17.3047C9.29297 16.888 8.02344 16.4258 6.89062 15.918C5.75781 15.3971 4.78776 14.8047 3.98047 14.1406C3.17318 13.4766 2.55469 12.7148 2.125 11.8555C1.69531 10.9961 1.48047 10.013 1.48047 8.90625C1.48047 7.79948 1.70833 6.77734 2.16406 5.83984C2.61979 4.90234 3.27083 4.08854 4.11719 3.39844C4.97656 2.69531 5.9987 2.14844 7.18359 1.75781C8.36849 1.36719 9.6901 1.17188 11.1484 1.17188C13.2839 1.17188 15.0938 1.58203 16.5781 2.40234C18.0755 3.20964 19.2148 4.27083 19.9961 5.58594C20.7773 6.88802 21.168 8.28125 21.168 9.76562H17.418C17.418 8.69792 17.1901 7.75391 16.7344 6.93359C16.2786 6.10026 15.5885 5.44922 14.6641 4.98047C13.7396 4.4987 12.5677 4.25781 11.1484 4.25781C9.80729 4.25781 8.70052 4.45964 7.82812 4.86328C6.95573 5.26693 6.30469 5.8138 5.875 6.50391C5.45833 7.19401 5.25 7.98177 5.25 8.86719C5.25 9.46615 5.3737 10.013 5.62109 10.5078C5.88151 10.9896 6.27865 11.4388 6.8125 11.8555C7.35938 12.2721 8.04948 12.6562 8.88281 13.0078C9.72917 13.3594 10.7383 13.6979 11.9102 14.0234C13.5247 14.4792 14.918 14.987 16.0898 15.5469C17.2617 16.1068 18.2253 16.7383 18.9805 17.4414C19.7487 18.1315 20.3151 18.9193 20.6797 19.8047C21.0573 20.6771 21.2461 21.6667 21.2461 22.7734C21.2461 23.9323 21.0117 24.9805 20.543 25.918C20.0742 26.8555 19.4036 27.6562 18.5312 28.3203C17.6589 28.9844 16.6107 29.4987 15.3867 29.8633C14.1758 30.2148 12.8216 30.3906 11.3242 30.3906C10.0091 30.3906 8.71354 30.2083 7.4375 29.8438C6.17448 29.4792 5.02214 28.9323 3.98047 28.2031C2.95182 27.474 2.125 26.5755 1.5 25.5078C0.888021 24.4271 0.582031 23.1771 0.582031 21.7578H4.33203C4.33203 22.7344 4.52083 23.5742 4.89844 24.2773C5.27604 24.9674 5.79036 25.5404 6.44141 25.9961C7.10547 26.4518 7.85417 26.7904 8.6875 27.0117C9.53385 27.2201 10.4128 27.3242 11.3242 27.3242C12.6393 27.3242 13.7526 27.1419 14.6641 26.7773C15.5755 26.4128 16.2656 25.8919 16.7344 25.2148C17.2161 24.5378 17.457 23.737 17.457 22.8125ZM38.4336 25.1172V8.86719H42.0664V30H38.6094L38.4336 25.1172ZM39.1172 20.6641L40.6211 20.625C40.6211 22.0312 40.4714 23.3333 40.1719 24.5312C39.8854 25.7161 39.4167 26.7448 38.7656 27.6172C38.1146 28.4896 37.2617 29.1732 36.207 29.668C35.1523 30.1497 33.8698 30.3906 32.3594 30.3906C31.3307 30.3906 30.3867 30.2409 29.5273 29.9414C28.681 29.6419 27.9518 29.1797 27.3398 28.5547C26.7279 27.9297 26.2526 27.1159 25.9141 26.1133C25.5885 25.1107 25.4258 23.9062 25.4258 22.5V8.86719H29.0391V22.5391C29.0391 23.4896 29.1432 24.2773 29.3516 24.9023C29.5729 25.5143 29.8659 26.0026 30.2305 26.3672C30.6081 26.7188 31.0247 26.9661 31.4805 27.1094C31.9492 27.2526 32.431 27.3242 32.9258 27.3242C34.4622 27.3242 35.6797 27.0312 36.5781 26.4453C37.4766 25.8464 38.1211 25.0456 38.5117 24.043C38.9154 23.0273 39.1172 21.901 39.1172 20.6641ZM51.1875 12.9297V38.125H47.5547V8.86719H50.875L51.1875 12.9297ZM65.4258 19.2578V19.668C65.4258 21.2044 65.2435 22.6302 64.8789 23.9453C64.5143 25.2474 63.9805 26.3802 63.2773 27.3438C62.5872 28.3073 61.7344 29.056 60.7188 29.5898C59.7031 30.1237 58.5378 30.3906 57.2227 30.3906C55.8815 30.3906 54.6966 30.1693 53.668 29.7266C52.6393 29.2839 51.7669 28.6393 51.0508 27.793C50.3346 26.9466 49.7617 25.931 49.332 24.7461C48.9154 23.5612 48.6289 22.2266 48.4727 20.7422V18.5547C48.6289 16.9922 48.9219 15.5924 49.3516 14.3555C49.7812 13.1185 50.3477 12.0638 51.0508 11.1914C51.7669 10.306 52.6328 9.63542 53.6484 9.17969C54.6641 8.71094 55.8359 8.47656 57.1641 8.47656C58.4922 8.47656 59.6706 8.73698 60.6992 9.25781C61.7279 9.76562 62.5938 10.4948 63.2969 11.4453C64 12.3958 64.5273 13.5352 64.8789 14.8633C65.2435 16.1784 65.4258 17.6432 65.4258 19.2578ZM61.793 19.668V19.2578C61.793 18.2031 61.6823 17.2135 61.4609 16.2891C61.2396 15.3516 60.8945 14.5312 60.4258 13.8281C59.9701 13.112 59.3841 12.5521 58.668 12.1484C57.9518 11.7318 57.099 11.5234 56.1094 11.5234C55.1979 11.5234 54.4036 11.6797 53.7266 11.9922C53.0625 12.3047 52.4961 12.7279 52.0273 13.2617C51.5586 13.7826 51.1745 14.3815 50.875 15.0586C50.5885 15.7227 50.3737 16.4128 50.2305 17.1289V22.1875C50.4909 23.099 50.8555 23.9583 51.3242 24.7656C51.793 25.5599 52.418 26.2044 53.1992 26.6992C53.9805 27.181 54.9635 27.4219 56.1484 27.4219C57.125 27.4219 57.9648 27.2201 58.668 26.8164C59.3841 26.3997 59.9701 25.8333 60.4258 25.1172C60.8945 24.401 61.2396 23.5807 61.4609 22.6562C61.6823 21.7188 61.793 20.7227 61.793 19.668ZM78.8047 30.3906C77.3333 30.3906 75.9987 30.1432 74.8008 29.6484C73.6159 29.1406 72.5938 28.431 71.7344 27.5195C70.888 26.6081 70.237 25.5273 69.7812 24.2773C69.3255 23.0273 69.0977 21.6602 69.0977 20.1758V19.3555C69.0977 17.6367 69.3516 16.1068 69.8594 14.7656C70.3672 13.4115 71.0573 12.2656 71.9297 11.3281C72.8021 10.3906 73.7917 9.68099 74.8984 9.19922C76.0052 8.71745 77.151 8.47656 78.3359 8.47656C79.8464 8.47656 81.1484 8.73698 82.2422 9.25781C83.349 9.77865 84.2539 10.5078 84.957 11.4453C85.6602 12.3698 86.181 13.4635 86.5195 14.7266C86.8581 15.9766 87.0273 17.3438 87.0273 18.8281V20.4492H71.2461V17.5H83.4141V17.2266C83.362 16.2891 83.1667 15.3776 82.8281 14.4922C82.5026 13.6068 81.9818 12.8776 81.2656 12.3047C80.5495 11.7318 79.5729 11.4453 78.3359 11.4453C77.5156 11.4453 76.7604 11.6211 76.0703 11.9727C75.3802 12.3112 74.7878 12.819 74.293 13.4961C73.7982 14.1732 73.4141 15 73.1406 15.9766C72.8672 16.9531 72.7305 18.0794 72.7305 19.3555V20.1758C72.7305 21.1784 72.8672 22.1224 73.1406 23.0078C73.4271 23.8802 73.8372 24.6484 74.3711 25.3125C74.918 25.9766 75.5755 26.4974 76.3438 26.875C77.125 27.2526 78.0104 27.4414 79 27.4414C80.276 27.4414 81.3568 27.181 82.2422 26.6602C83.1276 26.1393 83.9023 25.4427 84.5664 24.5703L86.7539 26.3086C86.2982 26.9987 85.7188 27.6562 85.0156 28.2812C84.3125 28.9062 83.4466 29.4141 82.418 29.8047C81.4023 30.1953 80.1979 30.3906 78.8047 30.3906ZM94.8594 12.1875V30H91.2461V8.86719H94.7617L94.8594 12.1875ZM101.461 8.75L101.441 12.1094C101.142 12.0443 100.855 12.0052 100.582 11.9922C100.322 11.9661 100.022 11.9531 99.6836 11.9531C98.8503 11.9531 98.1146 12.0833 97.4766 12.3438C96.8385 12.6042 96.2982 12.9688 95.8555 13.4375C95.4128 13.9062 95.0612 14.4661 94.8008 15.1172C94.5534 15.7552 94.3906 16.4583 94.3125 17.2266L93.2969 17.8125C93.2969 16.5365 93.4206 15.3385 93.668 14.2188C93.9284 13.099 94.3255 12.1094 94.8594 11.25C95.3932 10.3776 96.0703 9.70052 96.8906 9.21875C97.724 8.72396 98.7135 8.47656 99.8594 8.47656C100.12 8.47656 100.419 8.50911 100.758 8.57422C101.096 8.6263 101.331 8.6849 101.461 8.75ZM112.32 16.4258V19.3945H102.789V16.4258H112.32ZM119.469 0V30H115.855V0H119.469ZM118.609 18.6328L117.105 18.5742C117.118 17.1289 117.333 15.7943 117.75 14.5703C118.167 13.3333 118.753 12.2591 119.508 11.3477C120.263 10.4362 121.161 9.73307 122.203 9.23828C123.258 8.73047 124.423 8.47656 125.699 8.47656C126.741 8.47656 127.678 8.61979 128.512 8.90625C129.345 9.17969 130.055 9.6224 130.641 10.2344C131.24 10.8464 131.695 11.6406 132.008 12.6172C132.32 13.5807 132.477 14.7591 132.477 16.1523V30H128.844V16.1133C128.844 15.0065 128.681 14.1211 128.355 13.457C128.03 12.7799 127.555 12.2917 126.93 11.9922C126.305 11.6797 125.536 11.5234 124.625 11.5234C123.727 11.5234 122.906 11.7122 122.164 12.0898C121.435 12.4674 120.803 12.9883 120.27 13.6523C119.749 14.3164 119.339 15.0781 119.039 15.9375C118.753 16.7839 118.609 17.6823 118.609 18.6328ZM146.656 30.3906C145.185 30.3906 143.85 30.1432 142.652 29.6484C141.467 29.1406 140.445 28.431 139.586 27.5195C138.74 26.6081 138.089 25.5273 137.633 24.2773C137.177 23.0273 136.949 21.6602 136.949 20.1758V19.3555C136.949 17.6367 137.203 16.1068 137.711 14.7656C138.219 13.4115 138.909 12.2656 139.781 11.3281C140.654 10.3906 141.643 9.68099 142.75 9.19922C143.857 8.71745 145.003 8.47656 146.188 8.47656C147.698 8.47656 149 8.73698 150.094 9.25781C151.201 9.77865 152.105 10.5078 152.809 11.4453C153.512 12.3698 154.033 13.4635 154.371 14.7266C154.71 15.9766 154.879 17.3438 154.879 18.8281V20.4492H139.098V17.5H151.266V17.2266C151.214 16.2891 151.018 15.3776 150.68 14.4922C150.354 13.6068 149.833 12.8776 149.117 12.3047C148.401 11.7318 147.424 11.4453 146.188 11.4453C145.367 11.4453 144.612 11.6211 143.922 11.9727C143.232 12.3112 142.639 12.819 142.145 13.4961C141.65 14.1732 141.266 15 140.992 15.9766C140.719 16.9531 140.582 18.0794 140.582 19.3555V20.1758C140.582 21.1784 140.719 22.1224 140.992 23.0078C141.279 23.8802 141.689 24.6484 142.223 25.3125C142.77 25.9766 143.427 26.4974 144.195 26.875C144.977 27.2526 145.862 27.4414 146.852 27.4414C148.128 27.4414 149.208 27.181 150.094 26.6602C150.979 26.1393 151.754 25.4427 152.418 24.5703L154.605 26.3086C154.15 26.9987 153.57 27.6562 152.867 28.2812C152.164 28.9062 151.298 29.4141 150.27 29.8047C149.254 30.1953 148.049 30.3906 146.656 30.3906ZM162.711 12.1875V30H159.098V8.86719H162.613L162.711 12.1875ZM169.312 8.75L169.293 12.1094C168.993 12.0443 168.707 12.0052 168.434 11.9922C168.173 11.9661 167.874 11.9531 167.535 11.9531C166.702 11.9531 165.966 12.0833 165.328 12.3438C164.69 12.6042 164.15 12.9688 163.707 13.4375C163.264 13.9062 162.913 14.4661 162.652 15.1172C162.405 15.7552 162.242 16.4583 162.164 17.2266L161.148 17.8125C161.148 16.5365 161.272 15.3385 161.52 14.2188C161.78 13.099 162.177 12.1094 162.711 11.25C163.245 10.3776 163.922 9.70052 164.742 9.21875C165.576 8.72396 166.565 8.47656 167.711 8.47656C167.971 8.47656 168.271 8.50911 168.609 8.57422C168.948 8.6263 169.182 8.6849 169.312 8.75ZM171.305 19.668V19.2188C171.305 17.6953 171.526 16.2826 171.969 14.9805C172.411 13.6654 173.049 12.526 173.883 11.5625C174.716 10.5859 175.725 9.83073 176.91 9.29688C178.095 8.75 179.423 8.47656 180.895 8.47656C182.379 8.47656 183.714 8.75 184.898 9.29688C186.096 9.83073 187.112 10.5859 187.945 11.5625C188.792 12.526 189.436 13.6654 189.879 14.9805C190.322 16.2826 190.543 17.6953 190.543 19.2188V19.668C190.543 21.1914 190.322 22.6042 189.879 23.9062C189.436 25.2083 188.792 26.3477 187.945 27.3242C187.112 28.2878 186.103 29.043 184.918 29.5898C183.746 30.1237 182.418 30.3906 180.934 30.3906C179.449 30.3906 178.115 30.1237 176.93 29.5898C175.745 29.043 174.729 28.2878 173.883 27.3242C173.049 26.3477 172.411 25.2083 171.969 23.9062C171.526 22.6042 171.305 21.1914 171.305 19.668ZM174.918 19.2188V19.668C174.918 20.7227 175.042 21.7188 175.289 22.6562C175.536 23.5807 175.908 24.401 176.402 25.1172C176.91 25.8333 177.542 26.3997 178.297 26.8164C179.052 27.2201 179.931 27.4219 180.934 27.4219C181.923 27.4219 182.789 27.2201 183.531 26.8164C184.286 26.3997 184.911 25.8333 185.406 25.1172C185.901 24.401 186.272 23.5807 186.52 22.6562C186.78 21.7188 186.91 20.7227 186.91 19.668V19.2188C186.91 18.1771 186.78 17.194 186.52 16.2695C186.272 15.332 185.895 14.5052 185.387 13.7891C184.892 13.0599 184.267 12.487 183.512 12.0703C182.77 11.6536 181.897 11.4453 180.895 11.4453C179.905 11.4453 179.033 11.6536 178.277 12.0703C177.535 12.487 176.91 13.0599 176.402 13.7891C175.908 14.5052 175.536 15.332 175.289 16.2695C175.042 17.194 174.918 18.1771 174.918 19.2188ZM178.746 5.74219L182.535 0H186.891L181.656 5.74219H178.746ZM199 8.86719V30H195.367V8.86719H199ZM195.094 3.26172C195.094 2.67578 195.27 2.18099 195.621 1.77734C195.986 1.3737 196.52 1.17188 197.223 1.17188C197.913 1.17188 198.44 1.3737 198.805 1.77734C199.182 2.18099 199.371 2.67578 199.371 3.26172C199.371 3.82161 199.182 4.30339 198.805 4.70703C198.44 5.09766 197.913 5.29297 197.223 5.29297C196.52 5.29297 195.986 5.09766 195.621 4.70703C195.27 4.30339 195.094 3.82161 195.094 3.26172ZM217.105 24.3945C217.105 23.8737 216.988 23.3919 216.754 22.9492C216.533 22.4935 216.07 22.0833 215.367 21.7188C214.677 21.3411 213.635 21.0156 212.242 20.7422C211.07 20.4948 210.009 20.2018 209.059 19.8633C208.121 19.5247 207.32 19.1146 206.656 18.6328C206.005 18.151 205.504 17.5846 205.152 16.9336C204.801 16.2826 204.625 15.5208 204.625 14.6484C204.625 13.8151 204.807 13.0273 205.172 12.2852C205.549 11.543 206.077 10.8854 206.754 10.3125C207.444 9.73958 208.271 9.29036 209.234 8.96484C210.198 8.63932 211.272 8.47656 212.457 8.47656C214.15 8.47656 215.595 8.77604 216.793 9.375C217.991 9.97396 218.909 10.7747 219.547 11.7773C220.185 12.7669 220.504 13.8672 220.504 15.0781H216.891C216.891 14.4922 216.715 13.9258 216.363 13.3789C216.025 12.819 215.523 12.3568 214.859 11.9922C214.208 11.6276 213.408 11.4453 212.457 11.4453C211.454 11.4453 210.641 11.6016 210.016 11.9141C209.404 12.2135 208.954 12.5977 208.668 13.0664C208.395 13.5352 208.258 14.0299 208.258 14.5508C208.258 14.9414 208.323 15.293 208.453 15.6055C208.596 15.9049 208.844 16.1849 209.195 16.4453C209.547 16.6927 210.042 16.9271 210.68 17.1484C211.318 17.3698 212.132 17.5911 213.121 17.8125C214.853 18.2031 216.279 18.6719 217.398 19.2188C218.518 19.7656 219.352 20.4362 219.898 21.2305C220.445 22.0247 220.719 22.9883 220.719 24.1211C220.719 25.0456 220.523 25.8919 220.133 26.6602C219.755 27.4284 219.202 28.0924 218.473 28.6523C217.757 29.1992 216.897 29.6289 215.895 29.9414C214.905 30.2409 213.792 30.3906 212.555 30.3906C210.693 30.3906 209.117 30.0586 207.828 29.3945C206.539 28.7305 205.562 27.8711 204.898 26.8164C204.234 25.7617 203.902 24.6484 203.902 23.4766H207.535C207.587 24.4661 207.874 25.2539 208.395 25.8398C208.915 26.4128 209.553 26.8229 210.309 27.0703C211.064 27.3047 211.812 27.4219 212.555 27.4219C213.544 27.4219 214.371 27.2917 215.035 27.0312C215.712 26.7708 216.227 26.4128 216.578 25.957C216.93 25.5013 217.105 24.9805 217.105 24.3945Z" fill="black"/>
</svg>
