<svg width="35" height="30" viewBox="0 0 35 30" fill="none" xmlns="http://www.w3.org/2000/svg">
<path fill-rule="evenodd" clip-rule="evenodd" d="M16.8985 29.4775L17.6286 28.0682L18.3586 29.4775C18.1329 29.5941 17.8826 29.6549 17.6286 29.6549C17.3746 29.6549 17.1242 29.5941 16.8985 29.4775V29.4775ZM16.8985 29.4775L17.6286 28.0682L18.3586 29.4775L18.3629 29.4754L18.3756 29.4691L18.4136 29.4479C18.6351 29.3331 18.8538 29.2131 19.0696 29.0882C21.6478 27.62 24.0803 25.9095 26.3341 23.98C30.2319 20.6218 34.5572 15.5834 34.5572 9.5526C34.5572 3.91538 30.143 0.0302734 25.5639 0.0302734C22.2903 0.0302734 19.4209 1.72736 17.6286 4.30474C15.8363 1.72736 12.9669 0.0302734 9.69332 0.0302734C5.11414 0.0302734 0.700012 3.91538 0.700012 9.5526C0.700012 15.5834 5.02738 20.6218 8.92095 23.98C11.3665 26.0706 14.0214 27.903 16.8435 29.4479L16.8816 29.4691L16.8943 29.4754H16.8985V29.4775Z" fill="#CC2424"/>
</svg>
